<svg width="900" height="717" viewBox="0 0 900 717" class="keymap" xmlns="http://www.w3.org/2000/svg" xmlns:xlink="http://www.w3.org/1999/xlink">
<style>/* inherit to force styles through use tags */
svg path {
    fill: inherit;
}

/* font and background color specifications */
svg.keymap {
    font-family: SFMono-Regular,Consolas,Liberation Mono,Menlo,monospace;
    font-size: 14px;
    font-kerning: normal;
    text-rendering: optimizeLegibility;
    fill: #24292e;
}

/* default key styling */
rect.key {
    fill: #f6f8fa;
}

rect.key, rect.combo {
    stroke: #c9cccf;
    stroke-width: 1;
}

/* default key side styling, only used is draw_key_sides is set */
rect.side {
    filter: brightness(90%);
}

/* color accent for combo boxes */
rect.combo, rect.combo-separate {
    fill: #cdf;
}

/* color accent for held keys */
rect.held, rect.combo.held {
    fill: #fdd;
}

/* color accent for ghost (optional) keys */
rect.ghost, rect.combo.ghost {
    stroke-dasharray: 4, 4;
    stroke-width: 2;
}

text {
    text-anchor: middle;
    dominant-baseline: middle;
}

/* styling for layer labels */
text.label {
    font-weight: bold;
    text-anchor: start;
    stroke: white;
    stroke-width: 4;
    paint-order: stroke;
}

/* styling for optional footer */
text.footer {
    text-anchor: end;
    dominant-baseline: auto;
    stroke: white;
    stroke-width: 4;
    paint-order: stroke;
}

/* styling for combo tap, and key hold/shifted label text */
text.combo, text.hold, text.shifted {
    font-size: 11px;
}

text.hold {
    text-anchor: middle;
    dominant-baseline: auto;
}

text.shifted {
    text-anchor: middle;
    dominant-baseline: hanging;
}

text.layer-activator {
    text-decoration: underline;
}

/* styling for hold/shifted label text in combo box */
text.combo.hold, text.combo.shifted {
    font-size: 8px;
}

/* lighter symbol for transparent keys */
text.trans {
    fill: #7b7e81;
}

/* styling for combo dendrons */
path.combo {
    stroke-width: 1;
    stroke: gray;
    fill: none;
}

/* Start Tabler Icons Cleanup */
/* cannot use height/width with glyphs */
.icon-tabler > path {
    fill: inherit;
    stroke: inherit;
    stroke-width: 2;
}
/* hide tabler's default box */
.icon-tabler > path[stroke="none"][fill="none"] {
    visibility: hidden;
}
/* End Tabler Icons Cleanup */
</style>
<g transform="translate(30, 0)" class="layer-engrammer">
<text x="0" y="28" class="label" id="engrammer">engrammer:</text>
<g transform="translate(0, 56)">
<g transform="translate(28, 49)" class="key keypos-0">
<rect rx="6" ry="6" x="-26" y="-26" width="52" height="52" class="key"/>
<text x="0" y="0" class="key tap">`</text>
<text x="0" y="24" class="key hold">F11</text>
</g>
<g transform="translate(84, 49)" class="key keypos-1">
<rect rx="6" ry="6" x="-26" y="-26" width="52" height="52" class="key"/>
<text x="0" y="0" class="key tap">B</text>
<text x="0" y="24" class="key hold">F1</text>
</g>
<g transform="translate(140, 35)" class="key keypos-2">
<rect rx="6" ry="6" x="-26" y="-26" width="52" height="52" class="key"/>
<text x="0" y="0" class="key tap">Y</text>
<text x="0" y="24" class="key hold">F2</text>
</g>
<g transform="translate(196, 28)" class="key keypos-3">
<rect rx="6" ry="6" x="-26" y="-26" width="52" height="52" class="key"/>
<text x="0" y="0" class="key tap">O</text>
<text x="0" y="24" class="key hold">F3</text>
</g>
<g transform="translate(252, 35)" class="key keypos-4">
<rect rx="6" ry="6" x="-26" y="-26" width="52" height="52" class="key"/>
<text x="0" y="0" class="key tap">U</text>
<text x="0" y="24" class="key hold">F4</text>
</g>
<g transform="translate(308, 42)" class="key keypos-5">
<rect rx="6" ry="6" x="-26" y="-26" width="52" height="52" class="key"/>
<text x="0" y="0" class="key tap">&#x27;</text>
<text x="0" y="24" class="key hold">F5</text>
</g>
<g transform="translate(532, 42)" class="key keypos-6">
<rect rx="6" ry="6" x="-26" y="-26" width="52" height="52" class="key"/>
<text x="0" y="0" class="key tap">;</text>
<text x="0" y="24" class="key hold">F6</text>
</g>
<g transform="translate(588, 35)" class="key keypos-7">
<rect rx="6" ry="6" x="-26" y="-26" width="52" height="52" class="key"/>
<text x="0" y="0" class="key tap">L</text>
<text x="0" y="24" class="key hold">F7</text>
</g>
<g transform="translate(644, 28)" class="key keypos-8">
<rect rx="6" ry="6" x="-26" y="-26" width="52" height="52" class="key"/>
<text x="0" y="0" class="key tap">D</text>
<text x="0" y="24" class="key hold">F8</text>
</g>
<g transform="translate(700, 35)" class="key keypos-9">
<rect rx="6" ry="6" x="-26" y="-26" width="52" height="52" class="key"/>
<text x="0" y="0" class="key tap">W</text>
<text x="0" y="24" class="key hold">F9</text>
</g>
<g transform="translate(756, 49)" class="key keypos-10">
<rect rx="6" ry="6" x="-26" y="-26" width="52" height="52" class="key"/>
<text x="0" y="0" class="key tap">V</text>
<text x="0" y="24" class="key hold">F10</text>
</g>
<g transform="translate(812, 49)" class="key keypos-11">
<rect rx="6" ry="6" x="-26" y="-26" width="52" height="52" class="key"/>
<text x="0" y="0" class="key tap">Z</text>
<text x="0" y="24" class="key hold">F12</text>
</g>
<g transform="translate(28, 105)" class="key keypos-12">
<rect rx="6" ry="6" x="-26" y="-26" width="52" height="52" class="key"/>
<text x="0" y="0" class="key tap"><tspan style="font-size: 70%">&amp;caps_word</tspan></text>
</g>
<g transform="translate(84, 105)" class="key keypos-13">
<rect rx="6" ry="6" x="-26" y="-26" width="52" height="52" class="key"/>
<text x="0" y="0" class="key tap">C</text>
<text x="0" y="24" class="key hold">LCTRL</text>
</g>
<g transform="translate(140, 91)" class="key keypos-14">
<rect rx="6" ry="6" x="-26" y="-26" width="52" height="52" class="key"/>
<text x="0" y="0" class="key tap">I</text>
<text x="0" y="24" class="key hold">LALT</text>
</g>
<g transform="translate(196, 84)" class="key keypos-15">
<rect rx="6" ry="6" x="-26" y="-26" width="52" height="52" class="key"/>
<text x="0" y="0" class="key tap">E</text>
<text x="0" y="24" class="key hold">LGUI</text>
</g>
<g transform="translate(252, 91)" class="key keypos-16">
<rect rx="6" ry="6" x="-26" y="-26" width="52" height="52" class="key"/>
<text x="0" y="0" class="key tap">A</text>
<text x="0" y="24" class="key hold">LSHFT</text>
</g>
<g transform="translate(308, 98)" class="key keypos-17">
<rect rx="6" ry="6" x="-26" y="-26" width="52" height="52" class="key"/>
<text x="0" y="0" class="key tap">,</text>
</g>
<g transform="translate(532, 98)" class="key keypos-18">
<rect rx="6" ry="6" x="-26" y="-26" width="52" height="52" class="key"/>
<text x="0" y="0" class="key tap">.</text>
</g>
<g transform="translate(588, 91)" class="key keypos-19">
<rect rx="6" ry="6" x="-26" y="-26" width="52" height="52" class="key"/>
<text x="0" y="0" class="key tap">H</text>
<text x="0" y="24" class="key hold">LSHFT</text>
</g>
<g transform="translate(644, 84)" class="key keypos-20">
<rect rx="6" ry="6" x="-26" y="-26" width="52" height="52" class="key"/>
<text x="0" y="0" class="key tap">T</text>
<text x="0" y="24" class="key hold">RGUI</text>
</g>
<g transform="translate(700, 91)" class="key keypos-21">
<rect rx="6" ry="6" x="-26" y="-26" width="52" height="52" class="key"/>
<text x="0" y="0" class="key tap">S</text>
<text x="0" y="24" class="key hold">RALT</text>
</g>
<g transform="translate(756, 105)" class="key keypos-22">
<rect rx="6" ry="6" x="-26" y="-26" width="52" height="52" class="key"/>
<text x="0" y="0" class="key tap">N</text>
<text x="0" y="24" class="key hold">RCTRL</text>
</g>
<g transform="translate(812, 105)" class="key keypos-23">
<rect rx="6" ry="6" x="-26" y="-26" width="52" height="52" class="key"/>
<text x="0" y="0" class="key tap">Q</text>
</g>
<g transform="translate(28, 161)" class="key keypos-24">
<rect rx="6" ry="6" x="-26" y="-26" width="52" height="52" class="key"/>
<text x="0" y="0" class="key tap">\</text>
</g>
<g transform="translate(84, 161)" class="key keypos-25">
<rect rx="6" ry="6" x="-26" y="-26" width="52" height="52" class="key"/>
<text x="0" y="0" class="key tap">G</text>
</g>
<g transform="translate(140, 147)" class="key keypos-26">
<rect rx="6" ry="6" x="-26" y="-26" width="52" height="52" class="key"/>
<text x="0" y="0" class="key tap">X</text>
</g>
<g transform="translate(196, 140)" class="key keypos-27">
<rect rx="6" ry="6" x="-26" y="-26" width="52" height="52" class="key"/>
<text x="0" y="0" class="key tap">J</text>
</g>
<g transform="translate(252, 147)" class="key keypos-28">
<rect rx="6" ry="6" x="-26" y="-26" width="52" height="52" class="key"/>
<text x="0" y="0" class="key tap">K</text>
</g>
<g transform="translate(308, 154)" class="key keypos-29">
<rect rx="6" ry="6" x="-26" y="-26" width="52" height="52" class="key"/>
<text x="0" y="0" class="key tap">-</text>
</g>
<g transform="translate(532, 154)" class="key keypos-30">
<rect rx="6" ry="6" x="-26" y="-26" width="52" height="52" class="key"/>
<text x="0" y="0" class="key tap">/</text>
</g>
<g transform="translate(588, 147)" class="key keypos-31">
<rect rx="6" ry="6" x="-26" y="-26" width="52" height="52" class="key"/>
<text x="0" y="0" class="key tap">R</text>
</g>
<g transform="translate(644, 140)" class="key keypos-32">
<rect rx="6" ry="6" x="-26" y="-26" width="52" height="52" class="key"/>
<text x="0" y="0" class="key tap">M</text>
</g>
<g transform="translate(700, 147)" class="key keypos-33">
<rect rx="6" ry="6" x="-26" y="-26" width="52" height="52" class="key"/>
<text x="0" y="0" class="key tap">F</text>
</g>
<g transform="translate(756, 161)" class="key keypos-34">
<rect rx="6" ry="6" x="-26" y="-26" width="52" height="52" class="key"/>
<text x="0" y="0" class="key tap">P</text>
</g>
<g transform="translate(812, 161)" class="key keypos-35">
<rect rx="6" ry="6" x="-26" y="-26" width="52" height="52" class="key"/>
<text x="0" y="0" class="key tap">=</text>
</g>
<g transform="translate(224, 205)" class="key keypos-36">
<rect rx="6" ry="6" x="-26" y="-26" width="52" height="52" class="key"/>
<text x="0" y="0" class="key tap">ESC</text>
<a href="#num">
<text x="0" y="24" class="key hold layer-activator">num</text>
</a></g>
<g transform="translate(286, 213) rotate(15.0)" class="key keypos-37">
<rect rx="6" ry="6" x="-26" y="-26" width="52" height="52" class="key"/>
<text x="0" y="0" class="key tap">TAB</text>
</g>
<g transform="translate(351, 224) rotate(30.0)" class="key keypos-38">
<rect rx="6" ry="6" x="-26" y="-40" width="52" height="80" class="key"/>
<text x="0" y="0" class="key tap">BSPC</text>
</g>
<g transform="translate(489, 224) rotate(-30.0)" class="key keypos-39">
<rect rx="6" ry="6" x="-26" y="-40" width="52" height="80" class="key"/>
<text x="0" y="0" class="key tap">SPACE</text>
</g>
<g transform="translate(554, 213) rotate(-15.0)" class="key keypos-40">
<rect rx="6" ry="6" x="-26" y="-26" width="52" height="52" class="key"/>
<text x="0" y="0" class="key tap">RETURN</text>
</g>
<g transform="translate(616, 205)" class="key keypos-41">
<rect rx="6" ry="6" x="-26" y="-26" width="52" height="52" class="key"/>
<text x="0" y="0" class="key tap">
<tspan x="0" dy="-0.6em" style="font-size: 78%">&amp;num_word</tspan><tspan x="0" dy="1.2em" style="font-size: 78%">1</tspan>
</text>
</g>
<g class="combo combopos-0">
<rect rx="6" ry="6" x="98" y="85" width="28" height="26" class="combo"/>
<text x="112" y="98" class="combo tap">-</text>
<text x="112" y="109" class="combo hold">_</text>
</g>
<g class="combo combopos-1">
<rect rx="6" ry="6" x="154" y="74" width="28" height="26" class="combo"/>
<text x="168" y="88" class="combo tap">,</text>
<text x="168" y="98" class="combo hold">&lt;</text>
</g>
<g class="combo combopos-2">
<rect rx="6" ry="6" x="210" y="74" width="28" height="26" class="combo"/>
<text x="224" y="88" class="combo tap">&#x27;</text>
<text x="224" y="98" class="combo hold">&quot;</text>
</g>
<g class="combo combopos-3">
<rect rx="6" ry="6" x="602" y="74" width="28" height="26" class="combo"/>
<text x="616" y="88" class="combo tap">;</text>
<text x="616" y="98" class="combo hold">:</text>
</g>
<g class="combo combopos-4">
<rect rx="6" ry="6" x="658" y="74" width="28" height="26" class="combo"/>
<text x="672" y="88" class="combo tap">.</text>
<text x="672" y="98" class="combo hold">&gt;</text>
</g>
<g class="combo combopos-5">
<rect rx="6" ry="6" x="714" y="85" width="28" height="26" class="combo"/>
<text x="728" y="98" class="combo tap">/</text>
<text x="728" y="109" class="combo hold">?</text>
</g>
<g class="combo combopos-6">
<path d="M420,91 l-149,0" class="combo"/>
<path d="M420,91 l149,0" class="combo"/>
<rect rx="6" ry="6" x="406" y="78" width="28" height="26" class="combo"/>
<text x="420" y="91" class="combo tap"><tspan style="font-size: 70%">&amp;caps_word</tspan></text>
</g>
<g class="combo combopos-7">
<rect rx="6" ry="6" x="658" y="18" width="28" height="26" class="combo"/>
<text x="672" y="32" class="combo tap">=</text>
<text x="672" y="42" class="combo hold">+</text>
</g>
<g class="combo combopos-8">
<rect rx="6" ry="6" x="154" y="18" width="28" height="26" class="combo"/>
<text x="168" y="32" class="combo tap">\</text>
<text x="168" y="42" class="combo hold">|</text>
</g>
<g class="combo combopos-9">
<rect rx="6" ry="6" x="14" y="64" width="28" height="26" class="combo"/>
<text x="28" y="77" class="combo tap">[</text>
<text x="28" y="88" class="combo hold">{</text>
</g>
<g class="combo combopos-10">
<rect rx="6" ry="6" x="798" y="64" width="28" height="26" class="combo"/>
<text x="812" y="77" class="combo tap">]</text>
<text x="812" y="88" class="combo hold">}</text>
</g>
<g class="combo combopos-11">
<rect rx="6" ry="6" x="70" y="64" width="28" height="26" class="combo"/>
<text x="84" y="77" class="combo tap">1</text>
<text x="84" y="88" class="combo hold">!</text>
</g>
<g class="combo combopos-12">
<rect rx="6" ry="6" x="126" y="50" width="28" height="26" class="combo"/>
<text x="140" y="63" class="combo tap">2</text>
<text x="140" y="74" class="combo hold">@</text>
</g>
<g class="combo combopos-13">
<rect rx="6" ry="6" x="182" y="43" width="28" height="26" class="combo"/>
<text x="196" y="56" class="combo tap">3</text>
<text x="196" y="67" class="combo hold">#</text>
</g>
<g class="combo combopos-14">
<rect rx="6" ry="6" x="238" y="50" width="28" height="26" class="combo"/>
<text x="252" y="63" class="combo tap">4</text>
<text x="252" y="74" class="combo hold">$</text>
</g>
<g class="combo combopos-15">
<rect rx="6" ry="6" x="294" y="57" width="28" height="26" class="combo"/>
<text x="308" y="70" class="combo tap">5</text>
<text x="308" y="81" class="combo hold">%</text>
</g>
<g class="combo combopos-16">
<rect rx="6" ry="6" x="518" y="57" width="28" height="26" class="combo"/>
<text x="532" y="70" class="combo tap">6</text>
<text x="532" y="81" class="combo hold">^</text>
</g>
<g class="combo combopos-17">
<rect rx="6" ry="6" x="574" y="50" width="28" height="26" class="combo"/>
<text x="588" y="63" class="combo tap">7</text>
<text x="588" y="74" class="combo hold">&amp;</text>
</g>
<g class="combo combopos-18">
<rect rx="6" ry="6" x="630" y="43" width="28" height="26" class="combo"/>
<text x="644" y="56" class="combo tap">8</text>
<text x="644" y="67" class="combo hold">*</text>
</g>
<g class="combo combopos-19">
<rect rx="6" ry="6" x="686" y="50" width="28" height="26" class="combo"/>
<text x="700" y="63" class="combo tap">9</text>
<text x="700" y="74" class="combo hold">(</text>
</g>
<g class="combo combopos-20">
<rect rx="6" ry="6" x="742" y="64" width="28" height="26" class="combo"/>
<text x="756" y="77" class="combo tap">0</text>
<text x="756" y="88" class="combo hold">)</text>
</g>
<g class="combo combopos-21">
<rect rx="6" ry="6" x="294" y="113" width="28" height="26" class="combo"/>
<text x="308" y="126" class="combo tap">
<tspan x="308" dy="-0.6em">Alt+</tspan><tspan x="308" dy="1.2em">6</tspan>
</text>
</g>
<g class="combo combopos-22">
<rect rx="6" ry="6" x="14" y="120" width="28" height="26" class="combo"/>
<text x="28" y="133" class="combo tap">
<tspan x="28" dy="-0.6em" style="font-size: 88%">Sft+Gui+</tspan><tspan x="28" dy="1.2em" style="font-size: 88%">Z</tspan>
</text>
</g>
<g class="combo combopos-23">
<rect rx="6" ry="6" x="70" y="120" width="28" height="26" class="combo"/>
<text x="84" y="133" class="combo tap">
<tspan x="84" dy="-0.6em">Gui+</tspan><tspan x="84" dy="1.2em">Z</tspan>
</text>
</g>
<g class="combo combopos-24">
<rect rx="6" ry="6" x="126" y="106" width="28" height="26" class="combo"/>
<text x="140" y="119" class="combo tap">
<tspan x="140" dy="-0.6em">Gui+</tspan><tspan x="140" dy="1.2em">X</tspan>
</text>
</g>
<g class="combo combopos-25">
<rect rx="6" ry="6" x="182" y="99" width="28" height="26" class="combo"/>
<text x="196" y="112" class="combo tap">
<tspan x="196" dy="-0.6em">Gui+</tspan><tspan x="196" dy="1.2em">C</tspan>
</text>
</g>
<g class="combo combopos-26">
<rect rx="6" ry="6" x="238" y="106" width="28" height="26" class="combo"/>
<text x="252" y="119" class="combo tap">
<tspan x="252" dy="-0.6em">Gui+</tspan><tspan x="252" dy="1.2em">V</tspan>
</text>
</g>
<g class="combo combopos-27">
<rect rx="6" ry="6" x="574" y="106" width="28" height="26" class="combo"/>
<text x="588" y="119" class="combo tap">LEFT</text>
<text x="588" y="130" class="combo hold">HOME</text>
</g>
<g class="combo combopos-28">
<rect rx="6" ry="6" x="630" y="99" width="28" height="26" class="combo"/>
<text x="644" y="112" class="combo tap">DOWN</text>
<text x="644" y="123" class="combo hold">PG DN</text>
</g>
<g class="combo combopos-29">
<rect rx="6" ry="6" x="686" y="106" width="28" height="26" class="combo"/>
<text x="700" y="119" class="combo tap">UP</text>
<text x="700" y="130" class="combo hold">PG UP</text>
</g>
<g class="combo combopos-30">
<rect rx="6" ry="6" x="742" y="120" width="28" height="26" class="combo"/>
<text x="756" y="133" class="combo tap">RIGHT</text>
<text x="756" y="144" class="combo hold">END</text>
</g>
</g>
</g>
<g transform="translate(30, 331)" class="layer-num">
<text x="0" y="28" class="label" id="num">num:</text>
<g transform="translate(0, 56)">
<g transform="translate(28, 49)" class="key keypos-0">
<rect rx="6" ry="6" x="-26" y="-26" width="52" height="52" class="key"/>
<text x="0" y="0" class="key tap">
<tspan x="0" dy="-0.6em">KP</tspan><tspan x="0" dy="1.2em">DIVIDE</tspan>
</text>
</g>
<g transform="translate(84, 49)" class="key keypos-1">
<rect rx="6" ry="6" x="-26" y="-26" width="52" height="52" class="key"/>
<text x="0" y="0" class="key tap">_</text>
</g>
<g transform="translate(140, 35)" class="key keypos-2">
<rect rx="6" ry="6" x="-26" y="-26" width="52" height="52" class="key"/>
<text x="0" y="0" class="key tap">7</text>
<text x="0" y="24" class="key hold">KP 7</text>
</g>
<g transform="translate(196, 28)" class="key keypos-3">
<rect rx="6" ry="6" x="-26" y="-26" width="52" height="52" class="key"/>
<text x="0" y="0" class="key tap">8</text>
<text x="0" y="24" class="key hold">KP 8</text>
</g>
<g transform="translate(252, 35)" class="key keypos-4">
<rect rx="6" ry="6" x="-26" y="-26" width="52" height="52" class="key"/>
<text x="0" y="0" class="key tap">9</text>
<text x="0" y="24" class="key hold">KP 9</text>
</g>
<g transform="translate(308, 42)" class="key keypos-5">
<rect rx="6" ry="6" x="-26" y="-26" width="52" height="52" class="key"/>
<text x="0" y="0" class="key tap">
<tspan x="0" dy="-0.6em">KP</tspan><tspan x="0" dy="1.2em">MINUS</tspan>
</text>
</g>
<g transform="translate(532, 42)" class="key keypos-6">
<rect rx="6" ry="6" x="-26" y="-26" width="52" height="52" class="key"/>
</g>
<g transform="translate(588, 35)" class="key keypos-7">
<rect rx="6" ry="6" x="-26" y="-26" width="52" height="52" class="key"/>
<text x="0" y="0" class="key tap">MUTE</text>
</g>
<g transform="translate(644, 28)" class="key keypos-8">
<rect rx="6" ry="6" x="-26" y="-26" width="52" height="52" class="key"/>
<text x="0" y="0" class="key tap">
<tspan x="0" dy="-0.6em">VOL</tspan><tspan x="0" dy="1.2em">DN</tspan>
</text>
</g>
<g transform="translate(700, 35)" class="key keypos-9">
<rect rx="6" ry="6" x="-26" y="-26" width="52" height="52" class="key"/>
<text x="0" y="0" class="key tap">
<tspan x="0" dy="-0.6em">VOL</tspan><tspan x="0" dy="1.2em">UP</tspan>
</text>
</g>
<g transform="translate(756, 49)" class="key keypos-10">
<rect rx="6" ry="6" x="-26" y="-26" width="52" height="52" class="key"/>
</g>
<g transform="translate(812, 49)" class="key keypos-11">
<rect rx="6" ry="6" x="-26" y="-26" width="52" height="52" class="key"/>
</g>
<g transform="translate(28, 105)" class="key keypos-12">
<rect rx="6" ry="6" x="-26" y="-26" width="52" height="52" class="key"/>
<text x="0" y="0" class="key tap">
<tspan x="0" dy="-0.6em" style="font-size: 88%">KP</tspan><tspan x="0" dy="1.2em" style="font-size: 88%">MULTIPLY</tspan>
</text>
</g>
<g transform="translate(84, 105)" class="key keypos-13">
<rect rx="6" ry="6" x="-26" y="-26" width="52" height="52" class="key"/>
<text x="0" y="0" class="key tap">0</text>
<text x="0" y="24" class="key hold">KP 0</text>
</g>
<g transform="translate(140, 91)" class="key keypos-14">
<rect rx="6" ry="6" x="-26" y="-26" width="52" height="52" class="key"/>
<text x="0" y="0" class="key tap">4</text>
<text x="0" y="24" class="key hold">KP 4</text>
</g>
<g transform="translate(196, 84)" class="key keypos-15">
<rect rx="6" ry="6" x="-26" y="-26" width="52" height="52" class="key"/>
<text x="0" y="0" class="key tap">5</text>
<text x="0" y="24" class="key hold">KP 5</text>
</g>
<g transform="translate(252, 91)" class="key keypos-16">
<rect rx="6" ry="6" x="-26" y="-26" width="52" height="52" class="key"/>
<text x="0" y="0" class="key tap">6</text>
<text x="0" y="24" class="key hold">KP 6</text>
</g>
<g transform="translate(308, 98)" class="key keypos-17">
<rect rx="6" ry="6" x="-26" y="-26" width="52" height="52" class="key"/>
<text x="0" y="0" class="key tap">
<tspan x="0" dy="-0.6em">KP</tspan><tspan x="0" dy="1.2em">PLUS</tspan>
</text>
</g>
<g transform="translate(532, 98)" class="key keypos-18">
<rect rx="6" ry="6" x="-26" y="-26" width="52" height="52" class="key"/>
</g>
<g transform="translate(588, 91)" class="key keypos-19">
<rect rx="6" ry="6" x="-26" y="-26" width="52" height="52" class="key"/>
<text x="0" y="0" class="key tap">PREV</text>
<text x="0" y="24" class="key hold">LSHFT</text>
</g>
<g transform="translate(644, 84)" class="key keypos-20">
<rect rx="6" ry="6" x="-26" y="-26" width="52" height="52" class="key"/>
<text x="0" y="0" class="key tap">PP</text>
<text x="0" y="24" class="key hold">RGUI</text>
</g>
<g transform="translate(700, 91)" class="key keypos-21">
<rect rx="6" ry="6" x="-26" y="-26" width="52" height="52" class="key"/>
<text x="0" y="0" class="key tap">NEXT</text>
<text x="0" y="24" class="key hold">RALT</text>
</g>
<g transform="translate(756, 105)" class="key keypos-22">
<rect rx="6" ry="6" x="-26" y="-26" width="52" height="52" class="key"/>
<text x="0" y="0" class="key tap">RCTRL</text>
</g>
<g transform="translate(812, 105)" class="key keypos-23">
<rect rx="6" ry="6" x="-26" y="-26" width="52" height="52" class="key"/>
</g>
<g transform="translate(28, 161)" class="key keypos-24">
<rect rx="6" ry="6" x="-26" y="-26" width="52" height="52" class="key"/>
</g>
<g transform="translate(84, 161)" class="key keypos-25">
<rect rx="6" ry="6" x="-26" y="-26" width="52" height="52" class="key"/>
<text x="0" y="0" class="key tap">.</text>
<text x="0" y="24" class="key hold">KP DOT</text>
</g>
<g transform="translate(140, 147)" class="key keypos-26">
<rect rx="6" ry="6" x="-26" y="-26" width="52" height="52" class="key"/>
<text x="0" y="0" class="key tap">1</text>
<text x="0" y="24" class="key hold">KP 1</text>
</g>
<g transform="translate(196, 140)" class="key keypos-27">
<rect rx="6" ry="6" x="-26" y="-26" width="52" height="52" class="key"/>
<text x="0" y="0" class="key tap">2</text>
<text x="0" y="24" class="key hold">KP 2</text>
</g>
<g transform="translate(252, 147)" class="key keypos-28">
<rect rx="6" ry="6" x="-26" y="-26" width="52" height="52" class="key"/>
<text x="0" y="0" class="key tap">3</text>
<text x="0" y="24" class="key hold">KP 3</text>
</g>
<g transform="translate(308, 154)" class="key keypos-29">
<rect rx="6" ry="6" x="-26" y="-26" width="52" height="52" class="key"/>
<text x="0" y="0" class="key tap">
<tspan x="0" dy="-0.6em">KP</tspan><tspan x="0" dy="1.2em">ENTER</tspan>
</text>
</g>
<g transform="translate(532, 154)" class="key keypos-30">
<rect rx="6" ry="6" x="-26" y="-26" width="52" height="52" class="key"/>
</g>
<g transform="translate(588, 147)" class="key keypos-31">
<rect rx="6" ry="6" x="-26" y="-26" width="52" height="52" class="key"/>
</g>
<g transform="translate(644, 140)" class="key keypos-32">
<rect rx="6" ry="6" x="-26" y="-26" width="52" height="52" class="key"/>
</g>
<g transform="translate(700, 147)" class="key keypos-33">
<rect rx="6" ry="6" x="-26" y="-26" width="52" height="52" class="key"/>
</g>
<g transform="translate(756, 161)" class="key keypos-34">
<rect rx="6" ry="6" x="-26" y="-26" width="52" height="52" class="key"/>
</g>
<g transform="translate(812, 161)" class="key keypos-35">
<rect rx="6" ry="6" x="-26" y="-26" width="52" height="52" class="key"/>
</g>
<g transform="translate(224, 205)" class="key held keypos-36">
<rect rx="6" ry="6" x="-26" y="-26" width="52" height="52" class="key held"/>
</g>
<g transform="translate(286, 213) rotate(15.0)" class="key trans keypos-37">
<rect rx="6" ry="6" x="-26" y="-26" width="52" height="52" class="key trans"/>
<text x="0" y="0" class="key trans tap">▽</text>
</g>
<g transform="translate(351, 224) rotate(30.0)" class="key trans keypos-38">
<rect rx="6" ry="6" x="-26" y="-40" width="52" height="80" class="key trans"/>
<text x="0" y="0" class="key trans tap">▽</text>
</g>
<g transform="translate(489, 224) rotate(-30.0)" class="key trans keypos-39">
<rect rx="6" ry="6" x="-26" y="-40" width="52" height="80" class="key trans"/>
<text x="0" y="0" class="key trans tap">▽</text>
</g>
<g transform="translate(554, 213) rotate(-15.0)" class="key trans keypos-40">
<rect rx="6" ry="6" x="-26" y="-26" width="52" height="52" class="key trans"/>
<text x="0" y="0" class="key trans tap">▽</text>
</g>
<g transform="translate(616, 205)" class="key keypos-41">
<rect rx="6" ry="6" x="-26" y="-26" width="52" height="52" class="key"/>
<text x="0" y="0" class="key tap">CANCEL</text>
</g>
<g class="combo combopos-0">
<rect rx="6" ry="6" x="14" y="64" width="28" height="26" class="combo"/>
<text x="28" y="77" class="combo tap">[</text>
<text x="28" y="88" class="combo hold">{</text>
</g>
<g class="combo combopos-1">
<rect rx="6" ry="6" x="798" y="64" width="28" height="26" class="combo"/>
<text x="812" y="77" class="combo tap">]</text>
<text x="812" y="88" class="combo hold">}</text>
</g>
<g class="combo combopos-2">
<rect rx="6" ry="6" x="70" y="64" width="28" height="26" class="combo"/>
<text x="84" y="77" class="combo tap">1</text>
<text x="84" y="88" class="combo hold">!</text>
</g>
<g class="combo combopos-3">
<rect rx="6" ry="6" x="126" y="50" width="28" height="26" class="combo"/>
<text x="140" y="63" class="combo tap">2</text>
<text x="140" y="74" class="combo hold">@</text>
</g>
<g class="combo combopos-4">
<rect rx="6" ry="6" x="182" y="43" width="28" height="26" class="combo"/>
<text x="196" y="56" class="combo tap">3</text>
<text x="196" y="67" class="combo hold">#</text>
</g>
<g class="combo combopos-5">
<rect rx="6" ry="6" x="238" y="50" width="28" height="26" class="combo"/>
<text x="252" y="63" class="combo tap">4</text>
<text x="252" y="74" class="combo hold">$</text>
</g>
<g class="combo combopos-6">
<rect rx="6" ry="6" x="294" y="57" width="28" height="26" class="combo"/>
<text x="308" y="70" class="combo tap">5</text>
<text x="308" y="81" class="combo hold">%</text>
</g>
<g class="combo combopos-7">
<rect rx="6" ry="6" x="518" y="57" width="28" height="26" class="combo"/>
<text x="532" y="70" class="combo tap">6</text>
<text x="532" y="81" class="combo hold">^</text>
</g>
<g class="combo combopos-8">
<rect rx="6" ry="6" x="574" y="50" width="28" height="26" class="combo"/>
<text x="588" y="63" class="combo tap">7</text>
<text x="588" y="74" class="combo hold">&amp;</text>
</g>
<g class="combo combopos-9">
<rect rx="6" ry="6" x="630" y="43" width="28" height="26" class="combo"/>
<text x="644" y="56" class="combo tap">8</text>
<text x="644" y="67" class="combo hold">*</text>
</g>
<g class="combo combopos-10">
<rect rx="6" ry="6" x="686" y="50" width="28" height="26" class="combo"/>
<text x="700" y="63" class="combo tap">9</text>
<text x="700" y="74" class="combo hold">(</text>
</g>
<g class="combo combopos-11">
<rect rx="6" ry="6" x="742" y="64" width="28" height="26" class="combo"/>
<text x="756" y="77" class="combo tap">0</text>
<text x="756" y="88" class="combo hold">)</text>
</g>
<g class="combo combopos-12">
<rect rx="6" ry="6" x="294" y="113" width="28" height="26" class="combo"/>
<text x="308" y="126" class="combo tap">
<tspan x="308" dy="-0.6em">Alt+</tspan><tspan x="308" dy="1.2em">6</tspan>
</text>
</g>
<g class="combo combopos-13">
<rect rx="6" ry="6" x="14" y="120" width="28" height="26" class="combo"/>
<text x="28" y="133" class="combo tap">
<tspan x="28" dy="-0.6em" style="font-size: 88%">Sft+Gui+</tspan><tspan x="28" dy="1.2em" style="font-size: 88%">Z</tspan>
</text>
</g>
<g class="combo combopos-14">
<rect rx="6" ry="6" x="70" y="120" width="28" height="26" class="combo"/>
<text x="84" y="133" class="combo tap">
<tspan x="84" dy="-0.6em">Gui+</tspan><tspan x="84" dy="1.2em">Z</tspan>
</text>
</g>
<g class="combo combopos-15">
<rect rx="6" ry="6" x="126" y="106" width="28" height="26" class="combo"/>
<text x="140" y="119" class="combo tap">
<tspan x="140" dy="-0.6em">Gui+</tspan><tspan x="140" dy="1.2em">X</tspan>
</text>
</g>
<g class="combo combopos-16">
<rect rx="6" ry="6" x="182" y="99" width="28" height="26" class="combo"/>
<text x="196" y="112" class="combo tap">
<tspan x="196" dy="-0.6em">Gui+</tspan><tspan x="196" dy="1.2em">C</tspan>
</text>
</g>
<g class="combo combopos-17">
<rect rx="6" ry="6" x="238" y="106" width="28" height="26" class="combo"/>
<text x="252" y="119" class="combo tap">
<tspan x="252" dy="-0.6em">Gui+</tspan><tspan x="252" dy="1.2em">V</tspan>
</text>
</g>
<g class="combo combopos-18">
<rect rx="6" ry="6" x="574" y="106" width="28" height="26" class="combo"/>
<text x="588" y="119" class="combo tap">LEFT</text>
<text x="588" y="130" class="combo hold">HOME</text>
</g>
<g class="combo combopos-19">
<rect rx="6" ry="6" x="630" y="99" width="28" height="26" class="combo"/>
<text x="644" y="112" class="combo tap">DOWN</text>
<text x="644" y="123" class="combo hold">PG DN</text>
</g>
<g class="combo combopos-20">
<rect rx="6" ry="6" x="686" y="106" width="28" height="26" class="combo"/>
<text x="700" y="119" class="combo tap">UP</text>
<text x="700" y="130" class="combo hold">PG UP</text>
</g>
<g class="combo combopos-21">
<rect rx="6" ry="6" x="742" y="120" width="28" height="26" class="combo"/>
<text x="756" y="133" class="combo tap">RIGHT</text>
<text x="756" y="144" class="combo hold">END</text>
</g>
<g class="combo combopos-22">
<path d="M532,98 l0,-37" class="combo"/>
<path d="M532,98 l0,37" class="combo"/>
<rect rx="6" ry="6" x="518" y="85" width="28" height="26" class="combo"/>
<text x="532" y="98" class="combo tap">
<tspan x="532" dy="-0.6em">BT</tspan><tspan x="532" dy="1.2em">CLR</tspan>
</text>
</g>
<g class="combo combopos-23">
<path d="M812,105 l0,-37" class="combo"/>
<path d="M812,105 l0,37" class="combo"/>
<rect rx="6" ry="6" x="798" y="92" width="28" height="26" class="combo"/>
<text x="812" y="105" class="combo tap">
<tspan x="812" dy="-0.6em">BT</tspan><tspan x="812" dy="1.2em">NXT</tspan>
</text>
</g>
<g class="combo combopos-24">
<path d="M308,98 l0,-37" class="combo"/>
<path d="M308,98 l0,37" class="combo"/>
<rect rx="6" ry="6" x="294" y="85" width="28" height="26" class="combo"/>
<text x="308" y="98" class="combo tap">
<tspan x="308" dy="-0.6em">OUT</tspan><tspan x="308" dy="1.2em">TOG</tspan>
</text>
</g>
</g>
</g>
</svg>
